<svg xmlns="http://www.w3.org/2000/svg" xmlns:xlink="http://www.w3.org/1999/xlink" width="509.808" height="473.79" viewBox="0 0 509.808 473.79">
  <defs>
    <filter id="Caminho_3" x="97.809" y="0" width="312.046" height="312.046" filterUnits="userSpaceOnUse">
      <feOffset dy="3" input="SourceAlpha"/>
      <feGaussianBlur stdDeviation="9.5" result="blur"/>
      <feFlood flood-opacity="0.349"/>
      <feComposite operator="in" in2="blur"/>
      <feComposite in="SourceGraphic"/>
    </filter>
    <filter id="Caminho_5" x="406.542" y="408.011" width="35.629" height="53.842" filterUnits="userSpaceOnUse">
      <feOffset dy="3" input="SourceAlpha"/>
      <feGaussianBlur stdDeviation="3" result="blur-2"/>
      <feFlood flood-opacity="0.349"/>
      <feComposite operator="in" in2="blur-2"/>
      <feComposite in="SourceGraphic"/>
    </filter>
    <filter id="Caminho_6" x="72.865" y="408.501" width="35.15" height="52.866" filterUnits="userSpaceOnUse">
      <feOffset dy="3" input="SourceAlpha"/>
      <feGaussianBlur stdDeviation="3" result="blur-3"/>
      <feFlood flood-opacity="0.349"/>
      <feComposite operator="in" in2="blur-3"/>
      <feComposite in="SourceGraphic"/>
    </filter>
    <filter id="_web_developer" x="92.71" y="396.79" width="319" height="77" filterUnits="userSpaceOnUse">
      <feOffset dy="3" input="SourceAlpha"/>
      <feGaussianBlur stdDeviation="3" result="blur-4"/>
      <feFlood flood-opacity="0.349"/>
      <feComposite operator="in" in2="blur-4"/>
      <feComposite in="SourceGraphic"/>
    </filter>
    <filter id="Caminho_7" x="0" y="302.142" width="73.873" height="107.142" filterUnits="userSpaceOnUse">
      <feOffset dy="3" input="SourceAlpha"/>
      <feGaussianBlur stdDeviation="3" result="blur-5"/>
      <feFlood flood-opacity="0.349"/>
      <feComposite operator="in" in2="blur-5"/>
      <feComposite in="SourceGraphic"/>
    </filter>
    <filter id="Caminho_8" x="28.477" y="338.89" width="65.034" height="70.54" filterUnits="userSpaceOnUse">
      <feOffset dy="3" input="SourceAlpha"/>
      <feGaussianBlur stdDeviation="3" result="blur-6"/>
      <feFlood flood-opacity="0.349"/>
      <feComposite operator="in" in2="blur-6"/>
      <feComposite in="SourceGraphic"/>
    </filter>
    <filter id="Caminho_9" x="63.439" y="338.765" width="80.651" height="70.508" filterUnits="userSpaceOnUse">
      <feOffset dy="3" input="SourceAlpha"/>
      <feGaussianBlur stdDeviation="3" result="blur-7"/>
      <feFlood flood-opacity="0.349"/>
      <feComposite operator="in" in2="blur-7"/>
      <feComposite in="SourceGraphic"/>
    </filter>
    <filter id="Caminho_10" x="106.785" y="339.613" width="88.519" height="70.955" filterUnits="userSpaceOnUse">
      <feOffset dy="3" input="SourceAlpha"/>
      <feGaussianBlur stdDeviation="3" result="blur-8"/>
      <feFlood flood-opacity="0.349"/>
      <feComposite operator="in" in2="blur-8"/>
      <feComposite in="SourceGraphic"/>
    </filter>
    <filter id="Caminho_11" x="167.146" y="302.271" width="98.032" height="107.098" filterUnits="userSpaceOnUse">
      <feOffset dy="3" input="SourceAlpha"/>
      <feGaussianBlur stdDeviation="3" result="blur-9"/>
      <feFlood flood-opacity="0.349"/>
      <feComposite operator="in" in2="blur-9"/>
      <feComposite in="SourceGraphic"/>
    </filter>
    <filter id="Caminho_12" x="203.449" y="338.796" width="80.258" height="70.427" filterUnits="userSpaceOnUse">
      <feOffset dy="3" input="SourceAlpha"/>
      <feGaussianBlur stdDeviation="3" result="blur-10"/>
      <feFlood flood-opacity="0.349"/>
      <feComposite operator="in" in2="blur-10"/>
      <feComposite in="SourceGraphic"/>
    </filter>
    <filter id="Caminho_13" x="256.223" y="339.482" width="68.098" height="69.763" filterUnits="userSpaceOnUse">
      <feOffset dy="3" input="SourceAlpha"/>
      <feGaussianBlur stdDeviation="3" result="blur-11"/>
      <feFlood flood-opacity="0.349"/>
      <feComposite operator="in" in2="blur-11"/>
      <feComposite in="SourceGraphic"/>
    </filter>
    <filter id="Caminho_14" x="287.372" y="337.51" width="72.183" height="71.912" filterUnits="userSpaceOnUse">
      <feOffset dy="3" input="SourceAlpha"/>
      <feGaussianBlur stdDeviation="3" result="blur-12"/>
      <feFlood flood-opacity="0.349"/>
      <feComposite operator="in" in2="blur-12"/>
      <feComposite in="SourceGraphic"/>
    </filter>
    <filter id="Caminho_15" x="331.891" y="311.715" width="63.066" height="97.517" filterUnits="userSpaceOnUse">
      <feOffset dy="3" input="SourceAlpha"/>
      <feGaussianBlur stdDeviation="3" result="blur-13"/>
      <feFlood flood-opacity="0.349"/>
      <feComposite operator="in" in2="blur-13"/>
      <feComposite in="SourceGraphic"/>
    </filter>
    <filter id="Caminho_16" x="356.489" y="302.142" width="73.874" height="107.142" filterUnits="userSpaceOnUse">
      <feOffset dy="3" input="SourceAlpha"/>
      <feGaussianBlur stdDeviation="3" result="blur-14"/>
      <feFlood flood-opacity="0.349"/>
      <feComposite operator="in" in2="blur-14"/>
      <feComposite in="SourceGraphic"/>
    </filter>
    <filter id="Caminho_17" x="389.431" y="335.887" width="68.458" height="73.352" filterUnits="userSpaceOnUse">
      <feOffset dy="3" input="SourceAlpha"/>
      <feGaussianBlur stdDeviation="3" result="blur-15"/>
      <feFlood flood-opacity="0.349"/>
      <feComposite operator="in" in2="blur-15"/>
      <feComposite in="SourceGraphic"/>
    </filter>
    <filter id="Caminho_18" x="429.158" y="338.765" width="80.65" height="70.508" filterUnits="userSpaceOnUse">
      <feOffset dy="3" input="SourceAlpha"/>
      <feGaussianBlur stdDeviation="3" result="blur-16"/>
      <feFlood flood-opacity="0.349"/>
      <feComposite operator="in" in2="blur-16"/>
      <feComposite in="SourceGraphic"/>
    </filter>
  </defs>
  <g id="Grupo_10" data-name="Grupo 10" transform="translate(-25.626 -13.94)">
    <g id="Grupo_3" data-name="Grupo 3" transform="translate(151.935 39.44)">
      <g transform="matrix(1, 0, 0, 1, -126.31, -25.5)" filter="url(#Caminho_3)">
        <path id="Caminho_3-2" data-name="Caminho 3" d="M216.979,39.44A127.523,127.523,0,1,1,89.458,166.963,127.525,127.525,0,0,1,216.979,39.44Z" transform="translate(36.85 -13.94)" fill="#133347"/>
      </g>
      <path id="Caminho_4" data-name="Caminho 4" d="M177.56,197.606c-2.458,2.771-4.889,5.55-7.263,8.357q-3.447,4.1-7,7.869a60.98,60.98,0,0,1-7.58,6.769,27.541,27.541,0,0,1-4.407,2.39,11.236,11.236,0,0,1-3.986.648,4.2,4.2,0,0,1-3.556-1.722,5.621,5.621,0,0,1-.971-4.743,20.8,20.8,0,0,1,2.047-5.712,55.056,55.056,0,0,1,3.342-5.6q1.829-2.7,2.91-4.42,3.665-5.815,7-11.636t6.791-11.641a44.675,44.675,0,0,0,3.124-4.955q1.4-2.59,2.91-5.177,8.193-13.79,17.137-27.049t17.135-27.053q12.288-20.689,25.22-41.385a13.388,13.388,0,0,0,1.943-5.173c.285-1.863.5-3.735.642-5.6a7.365,7.365,0,0,0-.751-3.665,4.305,4.305,0,0,0-3.126-1.727,12.471,12.471,0,0,0-3.986-.214,27.274,27.274,0,0,0-3.774.644c-1.583.293-3.057.5-4.42.648a41.853,41.853,0,0,1-4.418.218,11.765,11.765,0,0,0-5.173.644q-2.157.866-3.235,4.1-.645,2.8-1.508,5.494a36.939,36.939,0,0,1-2.154,5.282,130.517,130.517,0,0,1-10.669,18.318q-6.142,8.844-11.532,17.892-5.61,9.483-11.1,18.857t-11.313,18.861q-5.388,8.838-11.1,17.349t-10.885,17.571q-2.8,4.74-6.142,10.667a95.646,95.646,0,0,0-5.821,12.285,59.247,59.247,0,0,0-3.447,12.824,25.021,25.021,0,0,0,.969,12.073,14.288,14.288,0,0,0,5.064,6.47,15.672,15.672,0,0,0,7.651,3.014c.71.126,9.307,1.827,15.755-1.727a57.315,57.315,0,0,0,10.458-7.76q4.852-4.525,9.377-9.589t8.624-10.455q4.092-5.385,8.188-10.346,4.525-5.821,9.161-11.964t8.947-11.746q2.365-3.02,4.416-6.142t4.42-6.147c.858-1.149,1.784-2.135,2.587-3.126.924-1.136,1.534-2.022,2.394-3.2a25.9,25.9,0,0,1,1.7-2.516A7.572,7.572,0,0,1,220.3,152.5a121.021,121.021,0,0,1-3.776,19.289q-2.7,9.6-5.062,18.861-1.73,6.9-3.99,13.793a67.213,67.213,0,0,1-5.928,13.149c-.723,1.153-1.652,2.587-2.8,4.313a36.721,36.721,0,0,1-3.883,4.848,17.786,17.786,0,0,1-4.634,3.556,5.807,5.807,0,0,1-4.85.434c-1.585-.578-2.659-2.013-3.235-4.313s-1.153-4.525-1.724-6.681a12.309,12.309,0,0,0-2.37-4.959q-1.515-1.723-5.173.864a15.175,15.175,0,0,0-4.957,6.356,11.517,11.517,0,0,0-.646,7.869,9.933,9.933,0,0,0,2.047,3.986,12.777,12.777,0,0,0,3.233,2.694c1.222.725,11.208,5.188,24.248.663a48.443,48.443,0,0,0,13.8-6.848,58.357,58.357,0,0,0,11.206-11.022,64.137,64.137,0,0,0,7.974-13.271,92.454,92.454,0,0,0,5.819-17.847c1.3-6.033,2.514-12.184,3.667-18.51q1.078-5.821,2.047-11.63t2.475-11.634a30.71,30.71,0,0,1,1.617-4.525c.65-1.433,1.329-2.942,2.047-4.525a8.615,8.615,0,0,1,.65-1.613c.43-.933.824-1.906,1.187-2.912s.676-1.938.969-2.8.355-1.294.212-1.294a16.229,16.229,0,0,0-4.307.539,24.047,24.047,0,0,1-4.313.757,47.9,47.9,0,0,1-5.494.109,16.406,16.406,0,0,0-5.5.753,10.483,10.483,0,0,0-4.418,2.482,33.488,33.488,0,0,0-3.344,3.986q-4.088,5.391-7.651,10.885t-7.432,10.885q-4.531,6.248-9.056,12.394c-.175.233-.359.473-.539.706" transform="translate(-56.808 -20.469)" fill="#fff"/>
    </g>
    <g id="Grupo_9" data-name="Grupo 9" transform="translate(34.626 322.082)">
      <g id="Grupo_7" data-name="Grupo 7" transform="translate(72.865 94.647)">
        <g id="Grupo_4" data-name="Grupo 4" transform="translate(333.677 11.221)">
          <g transform="matrix(1, 0, 0, 1, -415.54, -414.01)" filter="url(#Caminho_5)">
            <path id="Caminho_5-2" data-name="Caminho 5" d="M227.559,256.877h-2.052l14.39-17.92-15.248-17.922h2.058l15.571,17.922Z" transform="translate(190.89 192.98)" fill="#919191"/>
          </g>
        </g>
        <g id="Grupo_5" data-name="Grupo 5" transform="translate(0 11.711)">
          <g transform="matrix(1, 0, 0, 1, -81.86, -414.5)" filter="url(#Caminho_6)">
            <path id="Caminho_6-2" data-name="Caminho 6" d="M83,221.264h2l-14,17.43L85.834,256.13h-2L68.684,238.694Z" transform="translate(13.18 193.24)" fill="#919191"/>
          </g>
        </g>
        <g id="Grupo_6" data-name="Grupo 6" transform="translate(20.845)">
          <g transform="matrix(1, 0, 0, 1, -102.71, -402.79)" filter="url(#_web_developer)">
            <text id="_web_developer-2" data-name="/web developer" transform="translate(104.71 449.79)" fill="#919191" font-size="51" font-family="RobotoCondensed-LightItalic, Roboto Condensed" font-weight="300" font-style="italic"><tspan x="0" y="0">/web developer</tspan></text>
          </g>
        </g>
      </g>
      <g id="Grupo_8" data-name="Grupo 8">
        <g transform="matrix(1, 0, 0, 1, -9, -308.14)" filter="url(#Caminho_7)">
          <path id="Caminho_7-2" data-name="Caminho 7" d="M88.608,171.688a2.079,2.079,0,0,1,1.521.841,3.568,3.568,0,0,1,.37,1.782q-.106,1.364-.317,2.726a6.482,6.482,0,0,1-.943,2.516q-6.29,10.067-12.261,20.128-3.989,6.71-8.337,13.155t-8.333,13.155c-.492.843-.958,1.673-1.414,2.516a21.28,21.28,0,0,1-1.521,2.411q-1.678,2.837-3.3,5.659t-3.408,5.663c-.349.561-.824,1.275-1.416,2.148a27.435,27.435,0,0,0-1.622,2.724,10.064,10.064,0,0,0-1,2.781,2.727,2.727,0,0,0,.473,2.3,2.038,2.038,0,0,0,1.731.841,5.538,5.538,0,0,0,1.938-.314,14.864,14.864,0,0,0,4.2-2.779q1.986-1.829,3.669-3.513a60.818,60.818,0,0,0,4.662-5.712q2.147-2.991,4.249-6.134c.137-.21.5-.819,1.1-1.836a23.626,23.626,0,0,1,1.992-2.882,8.153,8.153,0,0,1,2.094-1.941c.663-.379,1.1-.015,1.314,1.1a3.2,3.2,0,0,1-.261,1.994,19.357,19.357,0,0,1-1.155,2.148,18.206,18.206,0,0,1-1.521,2.094,18.818,18.818,0,0,0-1.256,1.626q-3.045,4.509-6.395,8.757a48.625,48.625,0,0,1-7.655,7.7q-2.83,2.413-5.4,4.193a20.755,20.755,0,0,1-6.236,2.826,6.775,6.775,0,0,1-1.365.263c-.419.041-.875.056-1.365.056a7.574,7.574,0,0,1-3.723-1.472,6.916,6.916,0,0,1-2.46-3.141,12.222,12.222,0,0,1-.473-5.873,29.038,29.038,0,0,1,1.677-6.239,46.615,46.615,0,0,1,2.828-5.975q1.624-2.879,2.989-5.188,2.516-4.406,5.3-8.545t5.4-8.438q2.834-4.612,5.5-9.174t5.4-9.172q2.615-4.4,5.61-8.7a63.915,63.915,0,0,0,5.188-8.913,17.72,17.72,0,0,0,1.048-2.572c.28-.871.526-1.763.736-2.67a2.962,2.962,0,0,1,1.57-1.992,5.608,5.608,0,0,1,2.518-.315,19.914,19.914,0,0,0,2.148-.1q.992-.106,2.15-.314a13.469,13.469,0,0,1,1.833-.317A6.158,6.158,0,0,1,88.608,171.688Z" transform="translate(-25.63 136.59)" fill="#133347"/>
        </g>
        <g transform="matrix(1, 0, 0, 1, -9, -308.14)" filter="url(#Caminho_8)">
          <path id="Caminho_8-2" data-name="Caminho 8" d="M57.972,241.126a11.549,11.549,0,0,1-5.034-1.577,8.978,8.978,0,0,1-4.088-4.506,14.067,14.067,0,0,1-.892-5.819,24.213,24.213,0,0,1,1.153-6.183,45.234,45.234,0,0,1,2.15-5.509,59.185,59.185,0,0,1,7.079-12.1,45.54,45.54,0,0,1,10.218-9.8,41.713,41.713,0,0,1,8.021-4.456,32.558,32.558,0,0,1,8.859-2.36q4.926-.52,6.395,2.2a9.745,9.745,0,0,1,1.363,5.5,11.421,11.421,0,0,1-1.626,5.036,18.243,18.243,0,0,1-3.776,4.4,44.521,44.521,0,0,1-5.03,3.776,43.28,43.28,0,0,1-5.4,2.987q-2.725,1.261-4.824,2.1c-1.607.629-3.057,1.192-4.352,1.677a15.208,15.208,0,0,0-3.406,1.782,10.358,10.358,0,0,0-2.567,2.674,14.5,14.5,0,0,0-1.831,4.247,9.909,9.909,0,0,0-.473,3.3,7.063,7.063,0,0,0,.736,2.984,5.261,5.261,0,0,0,1.936,2.15,6.291,6.291,0,0,0,3.357.785,10.56,10.56,0,0,0,3.877-.736,17.212,17.212,0,0,0,3.564-1.883,27.965,27.965,0,0,0,3.2-2.572,36.8,36.8,0,0,0,2.781-2.882q3.033-3.354,5.92-6.919t5.4-7.236c.139-.208.4-.678.787-1.416a18.162,18.162,0,0,1,1.2-1.988,2.408,2.408,0,0,1,1.258-1.05c.421-.1.734.332.941,1.309a4.362,4.362,0,0,1-.888,3.618q-1.313,1.829-2.362,3.091-2.725,3.354-5.293,6.919t-5.4,6.812a47.8,47.8,0,0,1-6.236,5.975,29.734,29.734,0,0,1-7.6,4.405,22.221,22.221,0,0,1-4.454,1.2A15.935,15.935,0,0,1,57.972,241.126Zm8.806-27.68a8.279,8.279,0,0,0,1.833-.734c.663-.349,1.063-.561,1.2-.631a31.934,31.934,0,0,0,5.717-4.3,44.44,44.44,0,0,0,4.767-5.237,28.418,28.418,0,0,0,2.409-3.564,8.94,8.94,0,0,0,1.26-4.093,2.23,2.23,0,0,0-.471-1.624,1.388,1.388,0,0,0-1.521-.578,5.736,5.736,0,0,0-2.516,1.519q-1.261,1.207-2.1,2.045c-.419.49-.837.961-1.258,1.412s-.8.89-1.155,1.314q-1.672,2.1-3.248,4.14t-3.04,4.247c-.139.21-.436.665-.89,1.363a22.031,22.031,0,0,0-1.26,2.2,6.288,6.288,0,0,0-.678,1.938C65.763,213.393,66.078,213.59,66.777,213.446Z" transform="translate(-10.46 156.16)" fill="#133347"/>
        </g>
        <g transform="matrix(1, 0, 0, 1, -9, -308.14)" filter="url(#Caminho_9)">
          <path id="Caminho_9-2" data-name="Caminho 9" d="M69.688,240.87l-.21-.1a6.106,6.106,0,0,1-2.989-2.043,9.531,9.531,0,0,1-1.622-3.2,14.489,14.489,0,0,1-.58-3.721,24.093,24.093,0,0,1,.156-3.611,30.933,30.933,0,0,1,1.153-5.246,36.139,36.139,0,0,1,3.04-6.709,102.977,102.977,0,0,1,6.082-9.016,53.469,53.469,0,0,1,7.443-7.967q1.149-1.046,2.409-1.992c.839-.627,1.712-1.258,2.621-1.885q1.99-1.264,4.039-2.415a29.335,29.335,0,0,1,4.352-1.992q1.884-.735,3.821-1.468a11.317,11.317,0,0,1,4.041-.736q.94.106,1.938.21a9.3,9.3,0,0,1,1.936.419,3.024,3.024,0,0,1,2.043,1.677,13.636,13.636,0,0,0,1.418,2.411c-.073-.137.088-.5.471-1.1a9.233,9.233,0,0,1,.787-1.1,3.853,3.853,0,0,1,1.885-1.572,8.2,8.2,0,0,1,3.517-.524,33.676,33.676,0,0,0,3.718,0,4.109,4.109,0,0,0,1.677-.37,1.719,1.719,0,0,1,1.677.16,1.245,1.245,0,0,1,.627.839,1.626,1.626,0,0,1-.1.995,10.885,10.885,0,0,1-.524,1q-.315.523-.526.834-3.251,4.83-6.078,9.8t-5.766,10.015c-.563.978-1.119,1.958-1.677,2.935s-1.151,1.958-1.782,2.935q-1.89,3.039-3.984,6.288a21.564,21.564,0,0,0-2.935,6.919,4.609,4.609,0,0,0-.21,1.472,1.34,1.34,0,0,0,.841,1.256,1.915,1.915,0,0,0,1.466.051,6.173,6.173,0,0,0,1.679-.841,18.9,18.9,0,0,0,1.572-1.2c.488-.415.871-.734,1.151-.944q2.307-2.2,4.405-4.4t4.189-4.613q1.787-2.092,3.464-4.191a51.628,51.628,0,0,0,3.145-4.405c.139-.21.332-.5.578-.89a3.717,3.717,0,0,1,.837-.943,1.907,1.907,0,0,1,.943-.419c.315-.032.614.156.892.582a1.363,1.363,0,0,1,.158,1.1,4.376,4.376,0,0,1-.524,1.153,8.443,8.443,0,0,1-.785,1.05c-.282.31-.524.576-.734.783q-1.049,1.261-1.994,2.623a25.2,25.2,0,0,1-2.095,2.621c-.492.7-1,1.365-1.521,1.992s-1.068,1.258-1.626,1.889q-1.887,2.2-3.823,4.349t-3.932,4.245a39.839,39.839,0,0,1-3.412,3.2,20.064,20.064,0,0,1-4.347,2.83,11.89,11.89,0,0,1-4.613,1.2,5.432,5.432,0,0,1-4.193-1.782,7.421,7.421,0,0,1-2.255-4.086,11.333,11.333,0,0,1,.051-4.717l.421-1.048a1.893,1.893,0,0,0,.1-1.05,1.8,1.8,0,0,0-1,.682c-.314.383-.614.719-.892.995a20.436,20.436,0,0,0-1.519,1.47c-.458.49-.931,1.016-1.416,1.57a30.642,30.642,0,0,1-7.34,5.768,17.877,17.877,0,0,1-4.715,1.938A9.729,9.729,0,0,1,69.688,240.87Zm9.642-7.332a19.625,19.625,0,0,0,5.083-3.513,52.288,52.288,0,0,0,4.249-4.561q3.35-4.191,6.395-8.545a103.589,103.589,0,0,0,5.659-9.067q1.155-2.1,2.308-4.193a31.766,31.766,0,0,0,1.99-4.4,22.321,22.321,0,0,0,.682-2.935,3.541,3.541,0,0,0-.682-2.83,2.812,2.812,0,0,0-3.038-1.048,12.767,12.767,0,0,0-3.25,1.153,23.344,23.344,0,0,0-6.763,5.766q-2.991,3.675-5.5,7.129-1.47,1.887-2.724,3.879t-2.625,3.981q-1.361,1.993-2.512,4.088t-2.306,4.3q-.424.943-.995,2.095a17.758,17.758,0,0,0-1,2.413,13.389,13.389,0,0,0-.58,2.465,3.784,3.784,0,0,0,.37,2.251,3.2,3.2,0,0,0,2.2,2.043A5.162,5.162,0,0,0,79.331,233.538Z" transform="translate(8.16 156.1)" fill="#133347"/>
        </g>
        <g transform="matrix(1, 0, 0, 1, -9, -308.14)" filter="url(#Caminho_10)">
          <path id="Caminho_10-2" data-name="Caminho 10" d="M122.02,242a14.815,14.815,0,0,1-2.462-.424,4.907,4.907,0,0,1-2.043-1.046,6.314,6.314,0,0,1-1.834-2.726,9.085,9.085,0,0,1-.421-3.094,12.768,12.768,0,0,1,.526-3.2,27.623,27.623,0,0,1,1.1-3.042,60.367,60.367,0,0,1,4.035-7.387q2.253-3.508,4.666-6.97,1.361-2.1,2.726-4.193t2.723-4.191q.629-.947,1.572-2.1c.631-.768,1.222-1.57,1.784-2.411a10.3,10.3,0,0,0,1.256-2.569,3.3,3.3,0,0,0-.1-2.46,1.645,1.645,0,0,0-1.519-1.05,5.351,5.351,0,0,0-2.1.473,12.087,12.087,0,0,0-2.15,1.2c-.7.49-1.187.841-1.468,1.048a29.637,29.637,0,0,0-3.669,3.2q-1.678,1.73-3.252,3.515l-3.459,4.086a60.317,60.317,0,0,0-6.446,8.859q-2.776,4.666-5.821,9.384-1.986,3.042-3.979,5.975t-4.091,5.766a5.381,5.381,0,0,1-1.258,1.412,3.334,3.334,0,0,1-1.78.687,14.025,14.025,0,0,1-2.047.047c-.663-.034-1.346-.047-2.043-.047q-3.357,0-4.243-.056a2.575,2.575,0,0,1-1.207-.263,2.334,2.334,0,0,1-.473-1.675,3.233,3.233,0,0,1,.892-1.994,55.49,55.49,0,0,0,5.924-8.545q2.564-4.557,5.4-8.958,1.672-2.731,3.25-5.349t3.252-5.239q1.672-2.407,3.2-4.983,1.521-2.561,3.2-5.081c.349-.558.7-1.136,1.048-1.733a9.945,9.945,0,0,0,.843-1.831,8.414,8.414,0,0,0,.312-1.679,8.819,8.819,0,0,1,.421-1.988,4.771,4.771,0,0,1,.837-1.577,1.508,1.508,0,0,1,1.677-.312,2.386,2.386,0,0,0,.892.1,12.258,12.258,0,0,0,1.521-.1c1.47-.139,2.653-.242,3.562-.312s1.609-.1,2.095-.1a2.517,2.517,0,0,1,1.048.154,1.968,1.968,0,0,1,.524.368q1.993,2.2-.732,7.024a6.04,6.04,0,0,0-.421.785c-.068.175-.139.334-.208.473l-.1.208a3.3,3.3,0,0,1,1.2-1.2,8.648,8.648,0,0,0,1.414-1.1c.558-.417,1.083-.822,1.57-1.2a17.515,17.515,0,0,1,1.572-1.106,37.988,37.988,0,0,1,4.3-2.411,21.327,21.327,0,0,1,4.608-1.568,11.713,11.713,0,0,1,3.357-.158,10.185,10.185,0,0,1,3.3.839,7.125,7.125,0,0,1,2.567,1.938,5.392,5.392,0,0,1,1.155,3.252,14.979,14.979,0,0,1-1.209,6.919,34.336,34.336,0,0,1-3.406,6.08q-2.2,3.142-4.456,6.239t-4.349,6.236a72.985,72.985,0,0,0-5.349,8.8,7.371,7.371,0,0,1-.676,1.262,8.246,8.246,0,0,0-.787,1.572,4.436,4.436,0,0,0-.314,1.57,1.32,1.32,0,0,0,.629,1.153,2.959,2.959,0,0,0,2.779.1c1.085-.417,1.977-.8,2.67-1.153a21.469,21.469,0,0,0,5.928-4.927q2.571-3.039,4.981-5.975a29.045,29.045,0,0,0,2.095-2.567c.625-.871,1.254-1.8,1.887-2.779.629-.907,1.2-1.831,1.731-2.779a11.589,11.589,0,0,1,1.938-2.567,3.255,3.255,0,0,1,1.363-.785.964.964,0,0,1,1.26.576,3.175,3.175,0,0,1,.205,2.257,7.743,7.743,0,0,1-1.044,2.2,23.365,23.365,0,0,1-1.57,2.1l-1.468,1.733q-3.463,3.986-6.87,8.123a53.985,53.985,0,0,1-7.5,7.5,31.528,31.528,0,0,1-6.756,4.191A16.2,16.2,0,0,1,122.02,242Z" transform="translate(31.25 156.55)" fill="#133347"/>
        </g>
        <g transform="matrix(1, 0, 0, 1, -9, -308.14)" filter="url(#Caminho_11)">
          <path id="Caminho_11-2" data-name="Caminho 11" d="M119.686,260.629c-3.076-.563-5.068-1.955-5.973-4.2a14.293,14.293,0,0,1-.787-7.494,35.492,35.492,0,0,1,2.2-8.233,64.645,64.645,0,0,1,2.991-6.6,51.48,51.48,0,0,1,8.541-11.324,75.3,75.3,0,0,1,10.849-9.12,45.607,45.607,0,0,1,3.988-2.407,26.8,26.8,0,0,1,4.769-2.047,17.482,17.482,0,0,1,4.929-.839,7.458,7.458,0,0,1,4.452,1.305q.943.635,1.575,1.051a2.1,2.1,0,0,0,1.149.419,1.569,1.569,0,0,0,1.05-.475,13.582,13.582,0,0,0,1.365-1.517,29.048,29.048,0,0,0,2.619-4.035q1.155-2.15,2.311-4.247,1.881-3.354,3.823-6.761t3.93-6.763q1.049-1.781,2.152-3.457a25.348,25.348,0,0,0,1.938-3.564,11.178,11.178,0,0,0,.68-1.731c.171-.593.329-1.241.473-1.94a8.177,8.177,0,0,0,.047-1.626,2.109,2.109,0,0,1,.473-1.519,3.435,3.435,0,0,1,1.786-1.1,11.621,11.621,0,0,1,2.255-.315,17.553,17.553,0,0,1,2.355.053,6.607,6.607,0,0,0,2.1-.107,24.992,24.992,0,0,1,3.044-.419q1.463-.1,1.885,2.1a6.833,6.833,0,0,1-.1,3.145,15.33,15.33,0,0,1-1.207,3.094,26.422,26.422,0,0,1-1.729,2.884q-.943,1.361-1.889,2.621a69.659,69.659,0,0,0-3.879,6.08q-1.778,3.145-3.564,6.288-2.936,5.561-6.025,10.853t-6.45,10.532q-3.354,5.346-6.286,10.746T155.538,240.7q-1.261,2.1-2.3,4.247a45.693,45.693,0,0,0-1.889,4.454,8.166,8.166,0,0,0-.627,2.516c0,.7.259,1.085.783,1.153a4.33,4.33,0,0,0,1.628-.1,11.333,11.333,0,0,0,4.193-2.569c1.19-1.153,2.37-2.323,3.564-3.513q1.784-1.887,3.611-3.72t3.62-3.932q1.255-1.467,2.409-3.091a30.331,30.331,0,0,0,2.094-3.406,14.554,14.554,0,0,0,.948-1.784,4.734,4.734,0,0,1,1.256-1.675,2.2,2.2,0,0,1,1.468-.524c.558,0,.873.385.946,1.151a1.828,1.828,0,0,1-.214,1.207c-.212.385-.417.753-.629,1.1a29.5,29.5,0,0,1-1.938,3.305q-1.1,1.621-2.253,3.091-3.883,5.026-8.282,9.7a114.977,114.977,0,0,1-9.227,8.752,11.536,11.536,0,0,1-2.46,1.733,10.83,10.83,0,0,1-2.884.995,17.311,17.311,0,0,1-3.879.21,5.237,5.237,0,0,1-3.564-1.57,5.748,5.748,0,0,1-1.47-2.516,10.6,10.6,0,0,1-.415-2.937c0-.139.034-.507.1-1.1s.135-1.207.208-1.833.175-1.47.315-2.516c-.212,0-.387.137-.522.417a3.941,3.941,0,0,1-.524.682c-.28.312-.6.646-.944.993q-1.572,1.788-3.2,3.515A39.158,39.158,0,0,1,132,256.375,24.042,24.042,0,0,1,128.124,259a14.524,14.524,0,0,1-4.555,1.519A14.153,14.153,0,0,1,119.686,260.629Zm4.929-6.085a14.423,14.423,0,0,0,5.819-3.718q2.458-2.574,4.769-5.3,3.142-3.777,6.078-7.758a74.74,74.74,0,0,0,5.349-8.387c.488-.839,1.027-1.784,1.626-2.83a34.842,34.842,0,0,0,1.622-3.25,26.109,26.109,0,0,0,1.209-3.355,9.728,9.728,0,0,0,.366-3.25,3.694,3.694,0,0,0-.995-2.148,3.637,3.637,0,0,0-2.152-1.209,6.731,6.731,0,0,0-3.614.892,19.456,19.456,0,0,0-3.515,2.465,37.315,37.315,0,0,0-3.145,3.089c-.98,1.089-1.816,2.007-2.516,2.781q-2.936,3.251-5.5,6.654t-5.088,6.868a66.742,66.742,0,0,0-4.138,6.5,17.867,17.867,0,0,0-2.253,7.445,4.035,4.035,0,0,0,1.624,4.14,4.455,4.455,0,0,0,4.352.366h.107Z" transform="translate(63.39 136.66)" fill="#133347"/>
        </g>
        <g transform="matrix(1, 0, 0, 1, -9, -308.14)" filter="url(#Caminho_12)">
          <path id="Caminho_12-2" data-name="Caminho 12" d="M129.957,240.128a2.116,2.116,0,0,1,.415-2.52,9.775,9.775,0,0,1,2.2-1.675q1.361-.841,2.777-1.626a21.528,21.528,0,0,0,2.777-1.836,34.49,34.49,0,0,0,5.192-4.981,57.5,57.5,0,0,0,4.347-5.815q1.576-2.307,3.2-4.454t3.2-4.459q1.572-2.407,3.04-4.769t3.04-4.771A54.177,54.177,0,0,0,163.5,197.2a66.416,66.416,0,0,1,3.246-6.027,7.1,7.1,0,0,1,1.836-2.2q.995-.732,2.672.419a11.255,11.255,0,0,0,7.55,1.992,46,46,0,0,0,7.862-1.57,3.38,3.38,0,0,1,2.2.1,1.665,1.665,0,0,1,.941,1.889,4.5,4.5,0,0,1-1.361,2.779c-.845.873-1.538,1.658-2.1,2.358-.839.98-1.643,1.938-2.413,2.886s-1.536,1.9-2.3,2.882a133.337,133.337,0,0,0-8.282,12.473q-1.149,1.89-2.15,3.776t-1.831,3.776a18.249,18.249,0,0,0-.943,2.043,23,23,0,0,0-1.046,3.2,10.829,10.829,0,0,0-.37,3.042,1.6,1.6,0,0,0,1.207,1.675,3.768,3.768,0,0,0,2.255-.049,9.392,9.392,0,0,0,2.146-1.05,12.1,12.1,0,0,0,1.943-1.57q.889-.889,1.622-1.626a55.95,55.95,0,0,0,5.926-7.238q2.676-3.873,5.4-7.544c.351-.49.824-1.153,1.418-2a2.172,2.172,0,0,1,1.938-1.151c.839.071,1.2.473,1.1,1.207a6.955,6.955,0,0,1-.892,2.411,19.131,19.131,0,0,1-1.624,2.462,18.845,18.845,0,0,1-1.2,1.47q-1.467,1.887-2.933,3.718t-2.935,3.618c-.77,1.05-1.57,2.116-2.411,3.2s-1.677,2.116-2.52,3.094a47.449,47.449,0,0,1-6.025,5.817,17.068,17.068,0,0,1-7.6,3.513,14.2,14.2,0,0,1-2.989.1,8.584,8.584,0,0,1-2.777-.629,6.852,6.852,0,0,1-2.255-1.521,5.565,5.565,0,0,1-1.414-2.567,11.385,11.385,0,0,1-.419-3.718,16,16,0,0,1,.629-3.618,35.252,35.252,0,0,1,1.258-3.564q.735-1.784,1.572-3.353a38.167,38.167,0,0,1,5.973-8.8q3.668-4.092,7.343-7.76a15.991,15.991,0,0,1,1.938-1.573,4.414,4.414,0,0,0,1.626-1.782c.21-.419.225-.682.049-.787a1.43,1.43,0,0,0-.734-.154,5.617,5.617,0,0,0-1.046.1,5.3,5.3,0,0,1-.892.1,4.063,4.063,0,0,1-2-.524,6.866,6.866,0,0,0-1.992-.732,2.433,2.433,0,0,0-2.251.625,13.43,13.43,0,0,0-1.521,2q-.947,1.467-1.887,3.038t-1.889,3.149q-2,3.354-4.035,6.549t-4.354,6.343q-1.255,1.784-2.617,3.459t-2.83,3.355c-.282.278-.8.873-1.577,1.78s-1.692,1.923-2.777,3.042-2.253,2.234-3.509,3.352a38.293,38.293,0,0,1-3.564,2.83,7.639,7.639,0,0,1-3.044,1.363A1.615,1.615,0,0,1,129.957,240.128Z" transform="translate(82.73 156.11)" fill="#133347"/>
        </g>
        <g transform="matrix(1, 0, 0, 1, -9, -308.14)" filter="url(#Caminho_13)">
          <path id="Caminho_13-2" data-name="Caminho 13" d="M162.905,240.285a12.845,12.845,0,0,1-5.764-3.252,8.684,8.684,0,0,1-2.728-5.978,20.9,20.9,0,0,1,.212-4.138,37.563,37.563,0,0,1,.839-4.144,28.982,28.982,0,0,1,2.516-7.129,47.332,47.332,0,0,1,9.435-12.689q3.244-3.036,6.5-5.552,1.99-1.572,4.247-3.042a40.96,40.96,0,0,1,4.666-2.621,32.831,32.831,0,0,1,4.925-1.889,21.531,21.531,0,0,1,5.139-.839,16.39,16.39,0,0,1,5.764.839,8.347,8.347,0,0,1,3.979,3.355,10.7,10.7,0,0,1,1.784,7.129,45.444,45.444,0,0,1-1.465,7.34,48.829,48.829,0,0,1-6.395,14.045,41.92,41.92,0,0,1-10.693,11.217,58.93,58.93,0,0,1-8.494,4.927,31.148,31.148,0,0,1-9.33,2.83,20.883,20.883,0,0,1-2.569.053A8.89,8.89,0,0,1,162.905,240.285Zm8.7-5.451a19.72,19.72,0,0,0,6.763-4.822,59.35,59.35,0,0,0,5.188-6.5c.563-.768,1.063-1.536,1.519-2.3s.929-1.538,1.416-2.306a67.331,67.331,0,0,0,3.3-5.873c1.016-2.024,1.973-4.052,2.884-6.078.561-1.472,1.085-2.867,1.572-4.2a16.856,16.856,0,0,0,.943-4.405,8.508,8.508,0,0,0-.366-2.987,3.027,3.027,0,0,0-1.938-2.148,4.355,4.355,0,0,0-3.669.627,23.112,23.112,0,0,0-3.042,2.306q-1.47,1.47-2.935,2.779a29.284,29.284,0,0,0-2.726,2.779,60.745,60.745,0,0,0-5.034,6.185q-2.311,3.251-4.3,6.6a67.25,67.25,0,0,0-3.246,6.025q-1.47,3.1-2.728,6.239a23.11,23.11,0,0,0-1.1,3.879,4.7,4.7,0,0,0,.678,3.877,3.13,3.13,0,0,0,2.095,1.155,7,7,0,0,0,2.413,0A22.545,22.545,0,0,0,171.606,234.833Z" transform="translate(110.84 156.48)" fill="#133347"/>
        </g>
        <g transform="matrix(1, 0, 0, 1, -9, -308.14)" filter="url(#Caminho_14)">
          <path id="Caminho_14-2" data-name="Caminho 14" d="M189.337,241.752h-.1c-.7-.137-1.4-.3-2.094-.473a7.188,7.188,0,0,1-1.943-.785,6.351,6.351,0,0,1-1.57-1.307,4.905,4.905,0,0,1-1-1.938,5.591,5.591,0,0,1,.314-3.83,7.406,7.406,0,0,1,2.411-3.091c1.19-.839,2.024-.978,2.518-.419a6.03,6.03,0,0,1,1.151,2.413q.42,1.569.839,3.25a2.683,2.683,0,0,0,1.575,2.094,2.816,2.816,0,0,0,2.356-.21,8.648,8.648,0,0,0,2.257-1.729,18.431,18.431,0,0,0,1.889-2.362c.558-.839,1.014-1.538,1.363-2.092a32.817,32.817,0,0,0,2.88-6.4q1.1-3.354,1.94-6.709,1.155-4.509,2.462-9.172a58.357,58.357,0,0,0,1.831-9.381,3.678,3.678,0,0,0-1.044,1.046,6.56,6.56,0,0,0-.736,1.258,17.844,17.844,0,0,1-1.256,1.519q-.629.684-1.26,1.521-1.152,1.473-2.148,2.987c-.67,1.016-1.382,2.011-2.15,2.989q-2.1,2.725-4.347,5.712t-4.456,5.819q-2,2.413-3.984,5.032t-4.193,5.083q-2.2,2.465-4.561,4.67a27.858,27.858,0,0,1-5.085,3.772,4.7,4.7,0,0,1-1.677.841,2.5,2.5,0,0,1-1.887-.107,1.247,1.247,0,0,1-.629-.839,3.068,3.068,0,0,1,0-1.153,4.785,4.785,0,0,1,.366-1.2c.178-.383.334-.717.471-1a3.1,3.1,0,0,1,1.474-1.363c.627-.28,1.256-.593,1.885-.944a19.434,19.434,0,0,0,1.938-1.1,14.537,14.537,0,0,0,1.729-1.311,29.781,29.781,0,0,0,3.827-3.408q1.733-1.829,3.406-3.825,2.314-2.728,4.72-5.4t4.613-5.4q2.413-2.936,4.615-5.922c1.465-2,2.933-4,4.4-6.029q1.887-2.615,3.62-5.3t3.718-5.3a16.452,16.452,0,0,1,1.626-1.938,5.1,5.1,0,0,1,2.15-1.2,8.012,8.012,0,0,1,2.672-.368,22.465,22.465,0,0,0,2.674-.051,11.863,11.863,0,0,0,2.092-.366,7.793,7.793,0,0,1,2.1-.263c.066,0,.032.21-.1.629s-.3.875-.475,1.365-.366.961-.578,1.412a4,4,0,0,0-.314.787l-.995,2.2a15.8,15.8,0,0,0-.787,2.2q-.732,2.83-1.2,5.659t-1,5.661q-.841,4.615-1.78,9.013a45.029,45.029,0,0,1-2.83,8.7,31.1,31.1,0,0,1-3.883,6.5,28.648,28.648,0,0,1-5.449,5.451,22.662,22.662,0,0,1-6.709,3.511A16.174,16.174,0,0,1,189.337,241.752Z" transform="translate(127.42 155.43)" fill="#133347"/>
        </g>
        <g transform="matrix(1, 0, 0, 1, -9, -308.14)" filter="url(#Caminho_15)">
          <path id="Caminho_15-2" data-name="Caminho 15" d="M194.4,255.178a6.63,6.63,0,0,1-3.145-2.516,8.846,8.846,0,0,1-1.26-3.408,16.239,16.239,0,0,1-.208-3.616,21.64,21.64,0,0,1,1.731-6.08q1.3-2.933,2.777-5.663a100.746,100.746,0,0,1,5.453-9.067q2.933-4.348,5.659-8.962,1.152-1.784,2.255-3.618a9.419,9.419,0,0,0,1.309-4.039c.068-.486.156-.993.259-1.517a2.548,2.548,0,0,1,.685-1.309,5.532,5.532,0,0,1,3.509-1.365c1.577-.137,2.848-.244,3.827-.312.492-.066,1.053-.122,1.682-.154a7.331,7.331,0,0,1,1.78.1,3.478,3.478,0,0,1,1.47.625,2.067,2.067,0,0,1,.734,1.521,6.968,6.968,0,0,1-.368,2.779,13.821,13.821,0,0,1-1.258,2.726c-.522.877-1.1,1.746-1.731,2.621s-1.153,1.662-1.572,2.36q-3.036,4.721-5.973,9.435t-5.766,9.645c-.141.28-.436.785-.892,1.521s-.944,1.57-1.47,2.514-1.031,1.923-1.521,2.94a12.1,12.1,0,0,0-.995,2.828,3.611,3.611,0,0,0,.107,2.152,1.575,1.575,0,0,0,1.624.834,4.884,4.884,0,0,0,2.676-.576,12.76,12.76,0,0,0,2.514-1.733,22.685,22.685,0,0,0,2.257-2.255q1.043-1.2,1.883-2.146a73.732,73.732,0,0,0,5.085-6.08c1.572-2.1,3.059-4.262,4.456-6.5.212-.419.49-1.046.841-1.887s.734-1.658,1.153-2.462a6.491,6.491,0,0,1,1.47-1.94,1.7,1.7,0,0,1,1.883-.312q.943.42.368,2.2a20.221,20.221,0,0,1-2.148,4.3q-1.576,2.513-3.723,5.449t-4.24,5.5q-2.105,2.571-3.723,4.456t-2.152,2.411c-.839.841-1.955,1.851-3.352,3.044a42.716,42.716,0,0,1-4.456,3.3,18.564,18.564,0,0,1-4.871,2.251A7.51,7.51,0,0,1,194.4,255.178Zm30.4-66.256a5.167,5.167,0,0,1-2.257-2.148,4.975,4.975,0,0,1-.473-3.3,8.718,8.718,0,0,1,1.47-3.353,10.761,10.761,0,0,1,2.621-2.728,6.123,6.123,0,0,1,3.984-1.365,4.343,4.343,0,0,1,4.508,3.357,7.015,7.015,0,0,1,.051,2.828,10.455,10.455,0,0,1-.941,2.833,8.773,8.773,0,0,1-1.784,2.411,7.725,7.725,0,0,1-2.362,1.572,5.8,5.8,0,0,1-2.514.471A5.518,5.518,0,0,1,224.8,188.922Z" transform="translate(151.13 141.69)" fill="#133347"/>
        </g>
        <g transform="matrix(1, 0, 0, 1, -9, -308.14)" filter="url(#Caminho_16)">
          <path id="Caminho_16-2" data-name="Caminho 16" d="M255.239,171.688a2.084,2.084,0,0,1,1.523.841,3.6,3.6,0,0,1,.366,1.782q-.1,1.364-.312,2.726a6.52,6.52,0,0,1-.946,2.516q-6.287,10.067-12.263,20.128-3.986,6.71-8.337,13.155t-8.333,13.155c-.492.843-.963,1.673-1.416,2.516A21.57,21.57,0,0,1,224,230.919q-1.682,2.837-3.3,5.659t-3.41,5.663q-.523.841-1.414,2.148a27.06,27.06,0,0,0-1.626,2.724,10.268,10.268,0,0,0-1,2.781,2.734,2.734,0,0,0,.473,2.3,2.041,2.041,0,0,0,1.731.841,5.588,5.588,0,0,0,1.943-.314,14.776,14.776,0,0,0,4.189-2.779c1.331-1.219,2.55-2.392,3.673-3.513a61.555,61.555,0,0,0,4.666-5.712q2.144-2.991,4.242-6.134c.137-.21.5-.819,1.1-1.836a23.641,23.641,0,0,1,1.994-2.882,8.119,8.119,0,0,1,2.094-1.941q1-.574,1.311,1.1a3.139,3.139,0,0,1-.263,1.994,18.61,18.61,0,0,1-1.151,2.148,18.206,18.206,0,0,1-1.521,2.094,19.847,19.847,0,0,0-1.258,1.626q-3.042,4.509-6.4,8.757a48.328,48.328,0,0,1-7.651,7.7q-2.83,2.413-5.4,4.193a20.781,20.781,0,0,1-6.241,2.826,6.7,6.7,0,0,1-1.363.263c-.417.041-.871.056-1.367.056a7.56,7.56,0,0,1-3.716-1.472,6.906,6.906,0,0,1-2.462-3.141,12.2,12.2,0,0,1-.473-5.873,28.786,28.786,0,0,1,1.675-6.239,46.356,46.356,0,0,1,2.833-5.975q1.621-2.879,2.987-5.188,2.51-4.406,5.3-8.545t5.4-8.438q2.827-4.612,5.5-9.174t5.4-9.172q2.619-4.4,5.607-8.7a63.512,63.512,0,0,0,5.19-8.913,17.7,17.7,0,0,0,1.046-2.572c.28-.871.524-1.763.734-2.67a2.972,2.972,0,0,1,1.575-1.992,5.607,5.607,0,0,1,2.516-.315,19.954,19.954,0,0,0,2.15-.1c.661-.071,1.376-.175,2.148-.314a13.411,13.411,0,0,1,1.833-.317A6.175,6.175,0,0,1,255.239,171.688Z" transform="translate(164.24 136.59)" fill="#133347"/>
        </g>
        <g transform="matrix(1, 0, 0, 1, -9, -308.14)" filter="url(#Caminho_17)">
          <path id="Caminho_17-2" data-name="Caminho 17" d="M265.729,188.523a5.078,5.078,0,0,1,1.363,3.248,9.342,9.342,0,0,1-.417,3.462,15.679,15.679,0,0,0-.475,2.047,12.117,12.117,0,0,1-.471,1.936c-.278.77-.558,1.519-.839,2.255s-.565,1.485-.839,2.255a31.906,31.906,0,0,1-1.731,4.193c-.67,1.326-1.382,2.655-2.15,3.982q-2.728,4.406-5.661,8.489a41.044,41.044,0,0,1-3.04,3.673q-1.572,1.682-3.038,3.455-1.791,2.1-3.564,3.937a42.41,42.41,0,0,1-3.883,3.511c-.764.561-1.48,1.087-2.148,1.57s-1.378.982-2.148,1.472a37.832,37.832,0,0,1-3.877,2.46,18.621,18.621,0,0,1-4.088,1.679,14.446,14.446,0,0,1-4.245.522,12.524,12.524,0,0,1-4.456-.993,4.112,4.112,0,0,1-2.518-2.625,11.886,11.886,0,0,1-.839-4.608,17.666,17.666,0,0,1,.473-4.878,33.175,33.175,0,0,1,1.47-4.561,34.759,34.759,0,0,1,2.1-4.3q1.207-2.1,2.358-4.3c.492-.841.961-1.692,1.416-2.569s.931-1.763,1.416-2.67c.766-1.4,1.609-2.8,2.516-4.2s1.748-2.8,2.518-4.193a55.967,55.967,0,0,0,3.147-7.34,19.441,19.441,0,0,1,1.2-2.724,2.9,2.9,0,0,1,2.364-1.468,22.6,22.6,0,0,1,4.035-.263c1.363.038,2.7.088,4.035.158,1.955,0,2.728.941,2.3,2.831a8.949,8.949,0,0,1-1.1,2.882,22.563,22.563,0,0,0-1.414,2.779,35.177,35.177,0,0,1-2.728,5.032q-1.569,2.413-3.04,4.822-1.569,2.728-3.2,5.451c-1.087,1.821-2.219,3.637-3.41,5.449q-.834,1.37-1.675,2.674a13.966,13.966,0,0,0-1.363,2.781c-.488,1.119-.963,2.287-1.414,3.513a8.3,8.3,0,0,0-.473,3.827,3.189,3.189,0,0,0,1.311,2.253,3.3,3.3,0,0,0,2.672.473,13.476,13.476,0,0,0,5.871-2.984,25.927,25.927,0,0,0,4.61-4.878c.629-.9,1.275-1.784,1.94-2.621a27.391,27.391,0,0,0,1.834-2.621q1.675-2.41,3.145-4.874t2.83-5.085A55.258,55.258,0,0,0,256.4,203.1q.42-1.361.841-2.726a12.489,12.489,0,0,0,.524-2.83,7.408,7.408,0,0,0-.051-2.621,20.866,20.866,0,0,1-.368-2.516,4.324,4.324,0,0,1,.473-1.834,7.615,7.615,0,0,1,.993-1.626,5.712,5.712,0,0,1,2.991-1.521,4.33,4.33,0,0,1,3.3.578,1.421,1.421,0,0,0,.315.263A1.288,1.288,0,0,1,265.729,188.523Z" transform="translate(181.78 154.56)" fill="#133347"/>
        </g>
        <g transform="matrix(1, 0, 0, 1, -9, -308.14)" filter="url(#Caminho_18)">
          <path id="Caminho_18-2" data-name="Caminho 18" d="M240.63,240.87l-.212-.1a6.093,6.093,0,0,1-2.984-2.043,9.418,9.418,0,0,1-1.624-3.2,14.487,14.487,0,0,1-.58-3.721,23.526,23.526,0,0,1,.158-3.611,30.328,30.328,0,0,1,1.153-5.246,35.864,35.864,0,0,1,3.04-6.709,103.412,103.412,0,0,1,6.078-9.016,53.371,53.371,0,0,1,7.445-7.967q1.146-1.046,2.409-1.992c.839-.627,1.714-1.258,2.623-1.885q1.99-1.264,4.035-2.415a29.642,29.642,0,0,1,4.352-1.992q1.884-.735,3.825-1.468a11.294,11.294,0,0,1,4.037-.736c.627.071,1.275.141,1.94.21a9.317,9.317,0,0,1,1.938.419,3.029,3.029,0,0,1,2.043,1.677,13.492,13.492,0,0,0,1.416,2.411q-.106-.205.473-1.1a8.3,8.3,0,0,1,.787-1.1,3.834,3.834,0,0,1,1.885-1.572,8.188,8.188,0,0,1,3.513-.524,33.713,33.713,0,0,0,3.72,0,4.134,4.134,0,0,0,1.679-.37,1.716,1.716,0,0,1,1.675.16,1.248,1.248,0,0,1,.629.839,1.659,1.659,0,0,1-.1.995,9.935,9.935,0,0,1-.524,1q-.318.523-.524.834-3.254,4.83-6.08,9.8t-5.766,10.015q-.844,1.467-1.677,2.935t-1.782,2.935q-1.887,3.039-3.984,6.288a21.612,21.612,0,0,0-2.935,6.919,4.665,4.665,0,0,0-.212,1.472,1.338,1.338,0,0,0,.843,1.256,1.919,1.919,0,0,0,1.468.051,6.265,6.265,0,0,0,1.68-.841,18.869,18.869,0,0,0,1.57-1.2c.49-.415.869-.734,1.151-.944q2.307-2.2,4.407-4.4t4.189-4.613q1.781-2.092,3.462-4.191a52.134,52.134,0,0,0,3.147-4.405c.137-.21.329-.5.576-.89a3.6,3.6,0,0,1,.839-.943,1.9,1.9,0,0,1,.941-.419c.317-.032.612.156.892.582a1.354,1.354,0,0,1,.156,1.1,4.118,4.118,0,0,1-.524,1.153,8.236,8.236,0,0,1-.783,1.05c-.285.31-.524.576-.736.783q-1.046,1.261-1.99,2.623a24.943,24.943,0,0,1-2.1,2.621q-.735,1.049-1.523,1.992c-.524.631-1.065,1.258-1.624,1.889q-1.884,2.2-3.825,4.349t-3.93,4.245a40.1,40.1,0,0,1-3.41,3.2,20.22,20.22,0,0,1-4.347,2.83,11.9,11.9,0,0,1-4.617,1.2,5.441,5.441,0,0,1-4.193-1.782,7.428,7.428,0,0,1-2.251-4.086,11.3,11.3,0,0,1,.049-4.717c.139-.351.28-.7.419-1.048a1.875,1.875,0,0,0,.107-1.05,1.817,1.817,0,0,0-1,.682,12.093,12.093,0,0,1-.892.995c-.558.49-1.063.982-1.519,1.47s-.926,1.016-1.416,1.57a30.578,30.578,0,0,1-7.336,5.768,17.937,17.937,0,0,1-4.72,1.938A9.721,9.721,0,0,1,240.63,240.87Zm9.647-7.332a19.66,19.66,0,0,0,5.083-3.513,52.6,52.6,0,0,0,4.247-4.561q3.35-4.191,6.393-8.545a103.622,103.622,0,0,0,5.663-9.067q1.146-2.1,2.306-4.193a32.294,32.294,0,0,0,1.992-4.4,22.668,22.668,0,0,0,.68-2.935,3.548,3.548,0,0,0-.68-2.83,2.814,2.814,0,0,0-3.038-1.048,12.8,12.8,0,0,0-3.254,1.153,23.336,23.336,0,0,0-6.761,5.766q-2.994,3.675-5.5,7.129-1.47,1.887-2.728,3.879t-2.621,3.981q-1.364,1.993-2.514,4.088t-2.306,4.3c-.282.629-.612,1.326-.995,2.095a17.765,17.765,0,0,0-1,2.413,13.194,13.194,0,0,0-.576,2.465,3.767,3.767,0,0,0,.368,2.251,3.194,3.194,0,0,0,2.2,2.043A5.173,5.173,0,0,0,250.277,233.538Z" transform="translate(202.94 156.1)" fill="#133347"/>
        </g>
      </g>
    </g>
  </g>
</svg>
